<svg xmlns="http://www.w3.org/2000/svg" xmlns:xlink="http://www.w3.org/1999/xlink" version="1.1" x="0px" y="0px" viewBox="0 0 64 80" enable-background="new 0 0 64 64" xml:space="preserve"><g><ellipse cx="35.177" cy="15.854" rx="1.374" ry="1.352"/><ellipse cx="41.114" cy="15.854" rx="1.374" ry="1.352"/><ellipse cx="47.052" cy="15.854" rx="1.374" ry="1.352"/><path d="M27.158,23.402H9.026v10.959h18.132V23.402z M25.119,32.323H11.065v-6.881h14.054V32.323z"/><path d="M59.951,22.49c-0.032-0.271-0.17-0.519-0.386-0.687l-1.539-1.201c-0.439-0.341-1.071-0.27-1.421,0.164l-1.194,1.481   c-0.346-0.148-0.735-0.094-1.029,0.146v-7.061c0-2.952-2.433-5.353-5.424-5.353H9.877c-2.991,0-5.424,2.401-5.424,5.353v35.333   c0,2.952,2.433,5.353,5.424,5.353h39.08c2.991,0,5.424-2.401,5.424-5.353V31.085l4.151-5.152c0.171-0.212,0.25-0.485,0.219-0.757   c-0.021-0.174-0.097-0.328-0.198-0.468l1.178-1.461C59.903,23.035,59.982,22.762,59.951,22.49z M55.179,24.59l1.115,0.87   l-15.07,18.704l-1.495,0.717l0.361-1.564L55.179,24.59z M9.877,12.02h39.08c1.866,0,3.385,1.487,3.385,3.314v3.935H6.492v-3.935   C6.492,13.506,8.011,12.02,9.877,12.02z M52.342,50.667c0,1.827-1.519,3.314-3.385,3.314H9.877c-1.866,0-3.385-1.487-3.385-3.314   V21.308h45.85v3.523h0.023L38.356,42.219c-0.097,0.12-0.165,0.26-0.2,0.41l-0.891,3.858c-0.088,0.382,0.05,0.78,0.356,1.025   c0.184,0.148,0.41,0.224,0.637,0.224c0.15,0,0.301-0.033,0.441-0.1l3.615-1.734c0.137-0.066,0.258-0.161,0.353-0.28l9.674-12.007   V50.667z"/><path d="M30.117,25.441h17.084c0.563,0,1.02-0.457,1.02-1.02s-0.457-1.02-1.02-1.02H30.117c-0.563,0-1.02,0.457-1.02,1.02   S29.554,25.441,30.117,25.441z"/><path d="M9.55,39.077H35.25c0.563,0,1.02-0.457,1.02-1.02s-0.457-1.02-1.02-1.02H9.55c-0.563,0-1.02,0.457-1.02,1.02   S8.987,39.077,9.55,39.077z"/><path d="M9.55,44.978h22.452c0.563,0,1.02-0.457,1.02-1.02s-0.457-1.02-1.02-1.02H9.55c-0.563,0-1.02,0.457-1.02,1.02   S8.987,44.978,9.55,44.978z"/><path d="M38.946,48.67H9.55c-0.563,0-1.02,0.457-1.02,1.02s0.457,1.02,1.02,1.02h29.396c0.563,0,1.02-0.457,1.02-1.02   S39.509,48.67,38.946,48.67z"/><path d="M30.117,31.87h13.438c0.563,0,1.02-0.457,1.02-1.02s-0.457-1.02-1.02-1.02H30.117c-0.563,0-1.02,0.457-1.02,1.02   S29.554,31.87,30.117,31.87z"/></g><text x="0" y="79" fill="#000000" font-size="5px" font-weight="bold" font-family="'Helvetica Neue', Helvetica, Arial-Unicode, Arial, Sans-serif">Created by arif fauzi hakim</text><text x="0" y="84" fill="#000000" font-size="5px" font-weight="bold" font-family="'Helvetica Neue', Helvetica, Arial-Unicode, Arial, Sans-serif">from the Noun Project</text></svg>
