<svg xmlns="http://www.w3.org/2000/svg" viewBox="0 0 64 80" x="0px" y="0px"><title>book, textbook, guidelines</title><g><path d="M49.12,3.93H9.88a1.5,1.5,0,0,0-1.5,1.5V58.57a1.5,1.5,0,0,0,1.5,1.5H49.12a6.51,6.51,0,0,0,6.5-6.5V10.43A6.51,6.51,0,0,0,49.12,3.93Zm-37.74,3h6.94V57.07H11.38ZM52.62,53.57a3.5,3.5,0,0,1-3.5,3.5H21.32V6.93h27.8a3.5,3.5,0,0,1,3.5,3.5ZM28.86,20.79a1.5,1.5,0,0,1,1.5-1.5H43.57a1.5,1.5,0,0,1,0,3H30.36A1.5,1.5,0,0,1,28.86,20.79ZM47,28.62a1.5,1.5,0,0,1-1.5,1.5h-17a1.5,1.5,0,0,1,0-3h17A1.5,1.5,0,0,1,47,28.62Z"/></g><text x="0" y="79" fill="#000000" font-size="5px" font-weight="bold" font-family="'Helvetica Neue', Helvetica, Arial-Unicode, Arial, Sans-serif">Created by The Icon Z</text><text x="0" y="84" fill="#000000" font-size="5px" font-weight="bold" font-family="'Helvetica Neue', Helvetica, Arial-Unicode, Arial, Sans-serif">from the Noun Project</text></svg>
