<svg xmlns="http://www.w3.org/2000/svg" data-name="Layer 1" viewBox="0 0 32 40" x="0px" y="0px"><title>expand-black-media</title><path d="M26.74,14.83l-10-10a1,1,0,0,0-1.4,0l-10,10A1,1,0,0,0,6,16.51H7.22v10a1,1,0,0,0,1,1h5.6V20.8a1,1,0,0,1,1-1h2.42a1,1,0,0,1,1,1v6.7h5.6a1,1,0,0,0,1-1v-10h1.27A1,1,0,0,0,26.74,14.83Z"/><text x="0" y="47" fill="#000000" font-size="5px" font-weight="bold" font-family="'Helvetica Neue', Helvetica, Arial-Unicode, Arial, Sans-serif">Created by HideMaru</text><text x="0" y="52" fill="#000000" font-size="5px" font-weight="bold" font-family="'Helvetica Neue', Helvetica, Arial-Unicode, Arial, Sans-serif">from the Noun Project</text></svg>
